**ABCDEFGHIJKLMNOPQRSTUVWXYZabcdefghijklmnopqrstuvwxyz**************************
**PARASOLID !"#$%&'()*+,-./:;<=>?@[\]^_`{|}~0123456789**************************
**PART1;
MC=AMD64;
MC_MODEL=Intel64 Family 6 Model 60 Stepping 3, GenuineIntel;
MC_ID=unknown;
OS=Windows_NT;
OS_RELEASE=unknown;
FRU=Parasolid Version 24.0, build 175,  7-28-2011;
APPL=SolidWorks 2012-2011268;
SITE=;
USER=unknown;
FORMAT=text;
GUISE=transmit;
KEY=pipe-3D;
FILE=pipe-3D.x_t;
DATE=Fri Jan 13 09:36:10 2017;
**PART2;
SCH=SCH_2400175_20000;
USFLD_SIZE=0;
**PART3;
**END_OF_HEADER*****************************************************************
T51 : TRANSMIT FILE created by modeller version 240017523 SCH_2400175_20000_1300
6186 0 12 27 CCCCCCCCCCCCCCCCCCCCCCCA16 index_map_offset0 0 1 dA9 index_map82 0
 A17 node_id_index_map82 0 A20 schema_embedding_map82 0 Z1 412 2 3 0 0 0 0 1e3 1
e-8 0 4 0 1 0 1 1 5 6 7 8 9 10 11 0 0 0 0 81 255 2 2 349 12 1 0 0 0 0 13 0 70 11
 CI9 list_type0 0 1 uI10 notransmit0 0 1 lCCCDCCDI12 finger_index0 0 1 dI12 fing
er_block1012 0 CZ3 0 4 T1 0 0 3 20 1 14 14 13 255 5 174 0 1 0 15 0 0 16 0 50 255
 6 173 0 15 17 0 0 +.05 .015 .015 -1 0 0 0 0 1 32 255 7 288 0 10 18 0 0 +3469446
951953615e-33 0 0 .707106781186548 .707106781186548 0 .707106781186548 -.7071067
81186548 0 .0176776695296637 .0125 29 255 8 280 0 11 19 0 -1387778780781446e-32
 0 -.0125 19 255 9 52 0 1 16 0 20 V16 255 10 286 0 ?21 0 22 7 0 0 1 18 255 11 27
8 0 23 0 24 8 ?1 17 255 23 0 25 26 26 11 21 10 0 27 -18 24 49 0 28 11 29 30 ?1 1
7 28 0 31 32 33 24 34 35 0 36 +18 29 46 0 33 24 37 38 ?1 29 30 51 0 24 38 39 .05
 -.015 .015 29 38 48 0 29 40 30 -.05 -.015 .015 29 39 133 0 41 30 42 .05 .015 -.
015 18 41 116 0 43 44 45 39 ?1 29 42 132 0 44 39 46 .015 .015 -.015 18 44 115 0
 47 48 41 42 ?1 29 46 131 0 48 42 49 .015 .045 -.015 18 48 114 0 50 51 44 46 ?1
 29 49 130 0 51 46 52 -.015 .045 -.015 18 51 113 0 53 54 48 49 ?1 29 52 129 0 54
 49 55 -.015 .015 -.015 18 54 112 0 56 57 51 52 ?1 29 55 128 0 57 52 58 -.05 .01
5 -.015 18 57 111 0 59 60 54 55 ?1 29 58 127 0 60 55 19 -.05 -.015 -.015 18 60 1
10 0 61 62 57 58 ?1 29 19 126 0 62 58 8 .05 -.015 -.015 18 62 109 0 63 64 60 19
 ?1 17 63 0 65 36 66 62 67 68 0 69 +18 64 28 0 70 71 62 72 ?1 17 70 0 73 74 75 6
4 76 77 0 32 -18 71 31 0 76 78 64 79 ?1 29 72 30 0 64 80 79 .05 .015 .015 29 80
 338 0 45 0 72 0 0 .0125 29 79 33 0 71 72 81 .015 .015 .015 29 81 36 0 78 79 82
 .015 .045 .015 18 78 34 0 83 84 71 81 ?1 29 82 39 0 84 81 85 -.015 .045 .015 18
 84 37 0 86 87 78 82 ?1 29 85 42 0 87 82 40 -.015 .015 .015 18 87 40 0 88 37 84
 85 ?1 29 40 45 0 37 85 38 -.05 .015 .015 18 37 43 0 89 29 87 40 ?1 17 89 0 31 3
3 88 37 90 91 0 92 +15 255 31 3 0 32 93 0 17 33 0 31 28 89 29 94 95 0 96 +17 88
 0 31 89 86 87 97 98 0 99 +17 90 0 100 101 92 87 89 91 0 0 -16 91 19 0 ?89 95 98
 102 0 0 1 17 92 0 100 90 59 37 103 104 0 94 -15 100 146 0 59 105 0 17 59 0 100
 92 101 57 106 107 0 103 +17 103 0 108 61 94 57 92 104 0 109 +16 104 136 0 ?103
 110 111 112 0 0 1 17 94 0 108 103 96 37 33 95 0 0 -15 108 144 0 61 113 0 17 96
 0 108 94 61 29 66 111 0 34 -16 95 22 0 ?33 35 91 114 0 0 1 16 35 25 0 ?28 115 9
5 116 0 0 1 30 255 114 23 0 95 102 116 0 +-.05 .015 .015 0 -1 0 30 102 20 0 91 1
17 114 0 +-.05 .015 .015 -1 -495635278850516e-31 0 30 116 26 0 35 114 118 0 +-.0
5 -.015 .015 1 0 0 30 118 125 0 119 116 120 0 +.05 .015 -.015 0 1 0 16 119 105 0
 ?121 122 123 118 0 0 1 30 120 124 0 122 118 124 0 +.015 .015 -.015 -1 495635278
850516e-31 0 16 122 101 0 ?47 125 119 120 0 0 1 30 124 123 0 125 120 126 0 +.015
 .045 -.015 0 1 0 16 125 97 0 ?50 127 122 124 0 0 1 30 126 122 0 127 124 128 0 +
-.015 .045 -.015 -1 0 0 16 127 93 0 ?53 129 125 126 0 0 1 30 128 121 0 129 126 1
30 0 +-.015 .045 -.015 -578241158658936e-31 -1 0 16 129 89 0 ?56 107 127 128 0 0
 1 30 130 120 0 107 128 131 0 +-.05 .015 -.015 -1 -495635278850516e-31 0 16 107
 85 0 ?59 132 129 130 0 0 1 30 131 119 0 132 130 133 0 +-.05 .015 -.015 0 -1 0 1
6 132 81 0 ?61 68 107 131 0 0 1 30 133 118 0 68 131 134 0 +-.05 -.015 -.015 1 0
 0 16 68 77 0 ?63 135 132 133 0 0 1 30 134 158 0 115 133 136 0 +.05 -.015 .015 0
 0 -1 16 115 134 0 ?69 111 35 134 0 0 1 30 136 159 0 111 134 112 0 +-.05 -.015 .
015 0 0 -1 16 111 135 0 ?66 104 115 136 0 0 1 30 112 160 0 104 136 137 0 +-.05 .
015 .015 0 0 -1 30 137 161 0 110 112 138 0 +-.015 .015 .015 0 0 -1 16 110 137 0
 ?101 139 104 137 0 0 1 30 138 162 0 139 137 140 0 +-.015 .045 .015 0 0 -1 16 13
9 138 0 ?141 142 110 138 0 0 1 30 140 163 0 142 138 143 0 +.015 .045 .015 0 0 -1
 16 142 139 0 ?144 145 139 140 0 0 1 30 143 164 0 145 140 146 0 +.015 .015 .015
 0 0 -1 16 145 140 0 ?147 148 142 143 0 0 1 30 146 165 0 148 143 18 0 +.05 .015
 .015 0 0 -1 16 148 141 0 ?74 22 145 146 0 0 1 32 18 285 0 22 146 7 0 -346944695
1953615e-33 0 0 .707106781186548 -.707106781186548 0 .707106781186548 .707106781
186548 0 .0176776695296637 .0125 16 22 284 0 ?27 10 148 18 0 0 1 17 27 0 149 21
 21 11 26 22 0 0 +15 149 282 0 27 150 151 17 21 0 149 27 27 45 23 10 0 0 +17 26
 0 25 23 23 45 27 22 0 21 -15 25 315 0 26 152 0 18 45 309 0 26 41 0 80 ?1 14 255
 152 311 153 ?0 150 154 5 155 -0 0 0 150 20 81 1 153 401 156 152 157 0 0 158 159
 14 150 251 158 ?152 160 149 5 161 -0 0 152 160 20 15 154 314 0 162 152 25 51 25
5 155 332 0 152 0 161 0 +0 0 0 0 1 0 .0125 0 0 1 13 20 53 0 0 0 0 0 0 9 15 14 15
 157 163 ?164 0 165 5 6 -0 0 164 0 20 81 1 163 403 156 15 166 0 158 167 168 14 1
64 155 167 ?169 15 73 5 17 -0 0 169 15 20 15 165 239 0 170 15 171 17 170 0 165 1
70 170 0 172 173 0 0 -15 171 156 0 121 15 0 17 121 0 171 174 69 41 175 119 0 0 +
17 174 0 171 176 121 64 74 148 0 0 -17 69 0 171 121 176 62 36 115 0 175 +17 175
 0 177 67 43 62 121 119 0 0 -15 177 76 0 175 160 0 17 67 0 177 109 175 60 63 68
 0 0 -17 43 0 177 175 178 41 47 122 0 74 -17 178 0 177 43 179 44 50 125 0 0 -17
 47 0 73 75 74 44 43 122 0 147 +17 74 0 73 47 70 41 174 148 0 121 +15 73 154 0 4
7 164 0 17 75 0 73 70 47 71 147 145 0 180 -17 147 0 181 50 180 44 75 145 0 178 +
15 181 152 0 50 169 0 17 50 0 181 182 147 48 178 125 0 144 +17 180 0 181 147 182
 71 83 183 0 0 -17 182 0 181 180 50 78 144 142 0 184 -17 83 0 31 86 76 78 180 18
3 0 182 +16 183 10 0 ?83 185 77 186 0 0 1 16 185 13 0 ?86 98 183 187 0 0 1 16 77
 7 0 ?76 183 135 188 0 0 1 30 186 11 0 183 188 187 0 +.015 .045 .015 0 1 0 30 18
8 8 0 77 189 186 0 +.015 .015 .015 -1 495635278850516e-31 0 30 187 14 0 185 186
 117 0 +-.015 .045 .015 -1 0 0 30 117 17 0 98 187 102 0 +-.015 .045 .015 -578241
158658936e-31 -1 0 16 98 16 0 ?88 91 185 117 0 0 1 30 189 5 0 135 190 188 0 +.05
 .015 .015 0 1 0 16 135 4 0 ?32 77 68 189 0 0 1 31 255 190 267 0 173 191 189 0 +
.05 0 0 1 0 0 0 0 -1 .0125 16 173 248 0 ?172 123 192 190 0 0 1 31 191 268 0 123
 193 190 0 +-.05 0 0 1 0 0 0 0 -1 .0125 16 123 245 0 ?194 119 173 191 0 0 1 31 1
93 335 0 192 0 191 0 +0 .045 0 0 1 0 0 0 1 .0125 16 192 306 0 ?162 173 0 193 0 0
 1 17 162 0 154 162 162 0 195 192 0 0 +17 195 0 196 195 195 0 162 192 0 0 -15 19
6 292 0 195 197 198 14 197 151 199 ?200 169 196 5 201 -0 0 200 169 20 15 198 150
 0 53 197 0 17 53 0 198 202 144 51 179 127 0 141 +17 202 0 198 184 53 84 141 139
 0 97 -17 144 0 198 53 184 48 182 142 0 179 +17 179 0 177 178 203 48 53 127 0 0
 -17 141 0 204 56 97 51 202 139 0 203 +15 204 148 0 56 200 0 17 56 0 204 99 141
 54 203 129 0 101 +17 97 0 204 141 99 84 88 98 0 0 -17 203 0 177 179 106 51 56 1
29 0 0 -17 106 0 177 203 109 54 59 107 0 0 -17 109 0 177 106 67 57 61 132 0 0 -1
7 61 0 108 96 103 60 109 132 0 66 +17 66 0 65 63 34 60 96 111 0 67 +15 65 142 0
 63 205 0 17 34 0 65 66 36 29 28 35 0 0 -17 36 0 65 34 63 24 69 115 0 176 -17 17
6 0 171 69 174 24 32 135 0 0 -17 32 0 31 76 28 64 176 135 0 174 +17 76 0 31 83 3
2 71 70 77 0 75 +14 205 143 206 ?93 113 65 5 207 -0 0 93 113 20 81 1 206 406 156
 205 208 0 199 209 210 14 93 1 209 ?160 205 31 5 211 +0 0 160 205 20 14 113 145
 212 ?205 105 213 5 214 -0 0 205 105 20 50 207 166 0 205 215 214 0 +-.05 -.015 .
015 0 1 0 0 0 1 50 215 117 0 160 211 207 0 +0 0 -.015 0 0 1 1 0 0 50 214 167 0 1
13 207 216 0 +-.05 .015 .015 1 0 0 0 0 -1 50 216 168 0 105 214 217 0 +-.05 .015
 .015 495635278850516e-31 -1 0 1 495635278850516e-31 0 14 105 147 218 ?113 200 1
00 5 216 -0 0 113 200 20 50 217 169 0 200 216 201 0 +-.015 .045 .015 1 -57824115
8658936e-31 0 578241158658936e-31 1 0 14 200 149 219 ?105 197 204 5 217 -0 0 105
 197 20 50 201 170 0 197 217 220 0 +-.015 .045 .015 0 -1 0 0 0 -1 50 220 171 0 1
69 201 17 0 +.015 .045 .015 -1 0 0 0 0 1 14 169 153 221 ?197 164 181 5 220 -0 0
 197 164 20 50 17 172 0 164 220 6 0 +.015 .015 .015 -495635278850516e-31 -1 0 1
 -495635278850516e-31 0 81 1 221 411 156 169 222 0 219 223 224 80 255 1 156 225
 226 9000 1 1 1 1 1 1 1 1 0 FFFFTFTFFFFFFF1 81 1 222 365 227 169 0 221 228 229 2
30 81 1 219 410 156 200 231 0 218 221 232 81 1 223 412 156 160 233 0 221 0 234 8
2 255 1 224 397148367 14 160 75 223 ?150 93 177 5 215 -0 0 150 93 20 81 1 233 37
2 227 160 0 223 235 236 237 82 1 234 389611727 80 1 227 0 238 8001 0 0 0 0 3 5 0
 0 0 FFFFTFTFFFFFFF2 81 1 235 371 227 93 0 209 208 233 239 81 1 236 373 227 150
 0 158 233 157 240 83 255 3 237 1 1 1 81 1 158 402 156 150 236 0 153 163 241 81
 1 157 374 227 152 0 153 236 0 242 83 3 240 1 1 1 83 3 242 1 1 1 82 1 241 154586
3383 81 1 209 407 156 93 235 0 206 212 243 81 1 208 370 227 205 0 206 244 235 24
5 83 3 239 1 1 1 81 1 244 369 227 113 0 212 246 208 247 83 3 245 1 1 1 81 1 212
 408 156 113 244 0 209 218 248 81 1 246 368 227 105 0 218 231 244 249 83 3 247 1
 1 1 81 1 218 409 156 105 246 0 212 219 250 81 1 231 367 227 200 0 219 229 246 2
51 83 3 249 1 1 1 81 1 229 366 227 197 0 199 222 231 252 83 3 251 1 1 1 81 1 199
 405 156 197 229 0 167 206 253 83 3 252 1 1 1 81 1 167 404 156 164 228 0 163 199
 254 82 1 253 396886231 81 1 228 364 227 164 0 167 166 222 255 82 1 254 39741051
1 81 1 166 363 227 15 0 163 0 228 256 83 3 255 1 1 1 83 3 256 1 1 1 82 1 250 396
361935 82 1 248 396099795 82 1 243 383779023 79 255 15 238 SDL/TYSA_COLOUR82 1 2
32 396624079 83 3 230 1 1 1 79 14 226 SWEntUnchanged50 211 2 0 93 161 215 0 +0 0
 .015 0 0 1 1 0 0 51 161 264 0 150 155 211 0 +-.05 0 0 1 0 0 .0125 0 0 -1 15 213
 233 0 194 113 108 17 194 0 213 194 194 0 257 123 0 0 +17 257 0 151 257 257 0 19
4 123 0 0 -15 151 254 0 257 150 258 15 258 255 0 172 150 0 17 172 0 258 172 172
 0 170 173 0 0 +82 1 210 395837647 17 99 0 204 97 56 87 101 110 0 90 -17 101 0 1
00 59 90 54 99 110 0 106 +17 184 0 198 144 202 78 86 185 0 0 -17 86 0 31 88 83 8
4 184 185 0 202 +82 1 168 397672659 82 1 159 -1820917545 19 16 175 0 1 0 9 5 S74
 4 CI16 index_map_offset0 0 1 dCCZ20 14 3 0 0 223 2 157 0 0 0 0 0 0 0 0 0 0 0 0
 0 0 0 0 0 80 2 12 259 260 8004 0 0 0 0 3 5 0 0 0 FFTFFFFFFFFFFF2 3 83 1 13 1e3
 79 16 260 SDL/TYSA_DENSITY1 0 
