**ABCDEFGHIJKLMNOPQRSTUVWXYZabcdefghijklmnopqrstuvwxyz**************************
**PARASOLID !"#$%&'()*+,-./:;<=>?@[\]^_`{|}~0123456789**************************
**PART1;
MC=AMD64;
MC_MODEL=Intel64 Family 6 Model 158 Stepping 10, GenuineIntel;
MC_ID=unknown;
OS=Windows_NT;
OS_RELEASE=unknown;
FRU=Parasolid Version 33.1, build 247,  8- 6-2021;
APPL=SOLIDWORKS 2022-2021255;
SITE=;
USER=unknown;
FORMAT=text;
GUISE=transmit;
KEY=FILEÈ«¾Ö10mm.x_t;
DATE=Fri Jul 15 13:40:19 2022;
**PART2;
SCH=SCH_3301247_33103;
USFLD_SIZE=0;
**PART3;
**END_OF_HEADER*****************************************************************
T51 : TRANSMIT FILE created by modeller version 330124723 SCH_3301247_33103_1300
6230 0 12 35 CCCI7 lattice222 0 CCCI4 mesh1006 0 I8 polyline1008 0 CCCCCCCDI5 ow
ner1040 0 CCCCCCI13 boundary_mesh1006 0 I17 boundary_polyline1008 0 CCCA16 index
_map_offset0 0 1 dA9 index_map82 0 A17 node_id_index_map82 0 A20 schema_embeddin
g_map82 0 A5 child12 0 A14 lowest_node_id0 0 1 dA16 mesh_offset_data206 0 Z1 259
 2 3 0 0 0 0 0 0 0 1e3 1e-8 0 4 0 1 0 1 1 5 6 7 8 0 0 9 10 11 0 0 0 0 0 0 0 81 2
55 2 2 251 12 1 13 0 0 0 0 14 70 11 CI9 list_type0 0 1 uI10 notransmit0 0 1 lCCC
DCCDI12 finger_index0 0 1 dI12 finger_block1012 0 CZ3 0 4 T1 0 0 8 20 1 15 15 13
 255 5 141 0 1 0 16 0 0 17 0 50 255 6 134 0 16 18 0 0 +.05 0 .01 0 1 0 0 0 1 30
 255 7 140 0 10 19 0 0 +.05 0 .01 0 0 -1 29 255 8 105 0 20 21 0 0 0 0 19 8 CCCCC
CCA5 owner12 0 Z9 47 0 1 17 0 22 V0 16 255 10 116 0 ?23 0 24 7 0 0 1 18 255 11 4
4 0 25 0 26 27 ?1 17 255 25 0 28 29 30 11 31 32 0 33 +18 26 41 0 30 11 34 35 ?1
 29 27 46 0 11 35 36 0 0 .01 29 35 43 0 26 37 27 0 .05 .01 29 36 110 0 38 27 39
 .05 0 0 18 38 97 0 40 41 0 36 ?1 29 39 109 0 41 36 42 .05 .01 0 18 41 96 0 43 4
4 38 39 ?1 29 42 108 0 44 39 45 .01 .01 0 18 44 95 0 46 47 41 42 ?1 29 45 107 0
 47 42 21 .01 .05 0 18 47 94 0 48 49 44 45 ?1 29 21 106 0 49 45 8 0 .05 0 18 49
 93 0 50 20 47 21 ?1 17 50 0 51 52 53 49 54 55 0 56 +18 20 92 0 57 58 49 8 ?1 17
 57 0 59 33 56 20 60 61 0 62 +18 58 29 0 63 64 20 65 ?1 17 63 0 66 23 67 58 68 6
9 0 29 -18 64 32 0 68 70 58 71 ?1 29 65 31 0 58 0 71 .05 0 .01 29 71 34 0 64 65
 72 .05 .01 .01 29 72 37 0 70 71 37 .01 .01 .01 18 70 35 0 73 34 64 72 ?1 29 37
 40 0 34 72 35 .01 .05 .01 18 34 38 0 74 26 70 37 ?1 17 74 0 28 30 73 34 75 76 0
 77 +15 255 28 4 0 29 78 0 17 30 0 28 25 74 26 79 80 0 52 +17 73 0 28 74 68 70 8
1 82 0 83 +17 75 0 84 85 77 70 74 76 0 0 -16 76 17 0 ?74 80 82 86 0 0 1 17 77 0
 84 75 48 34 53 87 0 79 -15 84 121 0 48 88 0 17 48 0 84 77 85 47 89 90 0 53 +17
 53 0 51 50 79 47 77 87 0 54 +16 87 113 0 ?53 91 92 93 0 0 1 17 79 0 51 53 52 34
 30 80 0 0 -15 51 119 0 50 94 0 17 52 0 51 79 50 26 56 92 0 31 -16 80 21 0 ?30 3
2 76 95 0 0 1 16 32 25 0 ?25 96 80 97 0 0 1 30 95 23 0 80 86 97 0 +0 .05 .01 -1
 0 0 30 86 19 0 76 98 95 0 +.01 .05 .01 0 1 0 30 97 27 0 32 95 99 0 +0 0 .01 0 -
1 0 30 99 104 0 100 97 101 0 +.05 0 0 1 0 0 16 100 88 0 ?102 103 0 99 0 0 1 30 1
01 103 0 103 99 104 0 +.05 .01 0 -693889390390723e-30 1 0 16 103 84 0 ?43 105 10
0 101 0 0 1 30 104 102 0 105 101 106 0 +.01 .01 0 -1 433680868994202e-31 0 16 10
5 80 0 ?46 90 103 104 0 0 1 30 106 101 0 90 104 107 0 +.01 .05 0 0 1 0 16 90 76
 0 ?48 55 105 106 0 0 1 30 107 100 0 55 106 108 0 +0 .05 0 -1 0 0 16 55 72 0 ?50
 61 90 107 0 0 1 30 108 99 0 61 107 109 0 +0 0 0 0 -1 0 16 61 68 0 ?57 110 55 10
8 0 0 1 30 109 135 0 96 108 111 0 +0 0 .01 0 0 -1 16 96 111 0 ?62 92 32 109 0 0
 1 30 111 136 0 92 109 93 0 +0 .05 .01 0 0 -1 16 92 112 0 ?56 87 96 111 0 0 1 30
 93 137 0 87 111 112 0 +.01 .05 .01 0 0 -1 30 112 138 0 91 93 19 0 +.01 .01 .01
 0 0 -1 16 91 114 0 ?85 24 87 112 0 0 1 30 19 139 0 24 112 7 0 +.05 .01 .01 0 0
 -1 16 24 115 0 ?113 10 91 19 0 0 1 17 113 0 114 46 81 41 67 24 0 115 +15 114 12
3 0 46 116 0 17 46 0 114 83 113 44 115 105 0 85 +17 81 0 114 113 83 64 73 82 0 0
 -17 67 0 66 63 43 64 113 24 0 81 -17 115 0 117 40 89 41 46 105 0 0 -15 117 67 0
 118 119 0 17 40 0 117 118 115 38 43 103 0 23 -17 89 0 117 115 54 44 48 90 0 0 -
17 54 0 117 89 60 47 50 55 0 0 -17 60 0 117 54 118 49 57 61 0 0 -17 118 0 117 60
 40 20 102 100 0 0 -17 102 0 120 121 62 38 118 100 0 0 +15 120 127 0 102 16 0 17
 121 0 120 122 102 58 23 10 0 0 -17 62 0 120 102 122 20 33 96 0 118 +17 122 0 12
0 62 121 11 29 110 0 0 -17 33 0 59 31 57 11 62 96 0 122 -15 59 117 0 57 123 0 17
 31 0 59 56 33 26 25 32 0 0 -17 56 0 59 57 31 49 52 92 0 60 +14 255 123 118 124
 ?78 94 59 5 125 -0 0 78 94 22 81 1 124 252 126 123 127 0 0 128 129 14 78 1 128
 ?119 123 28 5 130 -0 0 119 123 22 14 94 120 131 ?123 88 51 5 132 -0 0 123 88 22
 50 125 129 0 123 133 132 0 +0 0 .01 1 0 0 0 0 -1 13 22 48 0 0 0 0 0 0 9 16 14 1
6 128 134 ?135 0 120 5 6 -0 0 135 0 22 81 1 134 255 126 16 136 0 131 137 138 14
 135 126 137 ?116 16 66 5 18 -0 0 116 16 22 81 1 137 256 126 135 139 0 134 140 1
41 14 116 124 140 ?88 135 114 5 142 -0 0 88 135 22 15 66 125 0 43 135 0 50 18 13
3 0 135 142 6 0 +.05 .01 .01 -1 -693889390390723e-30 0 693889390390723e-30 -1 0
 50 142 132 0 116 143 18 0 +.01 .01 .01 -433680868994202e-31 -1 0 1 -43368086899
4202e-31 0 50 143 131 0 88 132 142 0 +.01 .05 .01 -1 0 0 0 0 1 14 88 122 144 ?94
 116 84 5 143 -0 0 94 116 22 50 132 130 0 94 125 143 0 +0 .05 .01 0 -1 0 0 0 -1
 81 1 144 258 126 88 145 0 140 146 147 80 255 1 126 148 149 9000 1 1 1 1 1 1 1 1
 0 FFFFTFTFFFFFFF1 81 1 145 229 150 88 0 144 151 152 153 81 1 140 257 126 116 15
1 0 137 144 154 81 1 146 259 126 119 155 0 144 0 156 82 255 1 147 1227161741 14
 119 66 146 ?0 78 117 5 133 +0 0 0 78 22 81 1 155 233 150 119 0 146 157 0 158 82
 1 156 1225326733 80 1 150 0 159 8001 0 0 0 0 3 5 0 0 0 FFFFTFTFFFFFFF2 81 1 157
 232 150 78 0 128 127 155 160 83 255 3 158 1 1 1 81 1 128 253 126 78 157 0 124 1
31 161 81 1 127 231 150 123 0 124 152 157 162 83 3 160 1 1 1 81 1 152 230 150 94
 0 131 145 127 163 83 3 162 1 1 1 81 1 131 254 126 94 152 0 128 134 164 83 3 163
 1 1 1 82 1 164 1226899597 82 1 161 1217331341 79 255 15 159 SDL/TYSA_COLOUR50 1
33 98 0 119 130 125 0 +0 0 0 0 0 -1 -1 0 0 50 130 3 0 78 0 133 0 +0 0 .01 0 0 -1
 -1 0 0 81 1 151 228 150 116 0 140 139 145 165 82 1 154 1227423885 81 1 139 227
 150 135 0 137 136 151 166 83 3 165 1 1 1 81 1 136 226 150 16 0 134 0 139 167 83
 3 166 1 1 1 83 3 167 1 1 1 83 3 153 1 1 1 79 14 149 SWEntUnchanged17 43 0 66 67
 23 41 40 103 0 113 +17 23 0 66 43 63 38 121 10 0 102 +82 1 141 1227686029 82 1
 138 1227948173 82 1 129 1226637453 17 29 0 28 68 25 58 122 110 0 121 +16 110 5
 0 ?29 69 61 168 0 0 1 16 69 9 0 ?68 82 110 169 0 0 1 30 168 7 0 110 0 169 0 +.0
5 0 .01 1 0 0 30 169 11 0 69 168 98 0 +.05 .01 .01 -693889390390723e-30 1 0 30 9
8 15 0 82 169 86 0 +.01 .01 .01 -1 433680868994202e-31 0 16 82 13 0 ?73 76 69 98
 0 0 1 17 68 0 28 73 29 64 63 69 0 67 +17 83 0 114 81 46 70 85 91 0 75 -17 85 0
 84 48 75 44 83 91 0 89 +19 17 142 0 1 0 9 5 S0 74 4 CI16 index_map_offset0 0 1
 dCCZ20 15 8 0 0 170 171 146 172 173 13 155 2 0 0 0 0 0 0 0 0 0 0 0 0 81 2 170 1
74 174 1 0 171 0 0 0 175 81 2 171 178 176 1 170 172 0 0 0 177 81 1 172 187 178 1
 171 173 0 0 179 81 2 173 188 180 1 172 13 0 0 0 0 81 2 13 198 181 1 173 2 0 0 1
82 0 80 2 181 183 184 8004 0 0 0 0 3 5 0 0 0 FFTFFFFFFFFFFF2 3 83 1 182 1e3 79 1
6 184 SDL/TYSA_DENSITY80 2 180 185 186 9000 0 0 0 0 3 5 0 0 0 FFTFFFFFFFFFFF9 1
 79 16 186 BODY_RECIPE_200180 1 178 187 188 9000 1 1 1 1 1 1 1 1 0 FFTFFFFFFFFFF
F1 82 1 179 18573 79 10 188 BODY_MATCH80 2 176 189 190 9000 0 0 0 0 3 5 0 0 0 FF
TFFFFFFFFFFF9 1 82 1 177 87 79 30 190 LAST_BODY_MODIFYING_FEATURE_ID80 2 174 191
 192 9000 0 0 0 0 3 5 0 0 0 FFTFFFFFFFFFFF9 1 82 1 175 116 79 19 192 ENT_TIME_ST
AMP_200180 2 12 193 194 9000 0 0 0 0 3 5 0 0 0 FFTFFFFFFFFFFF9 1 82 1 14 106 79
 12 194 ATOM_ID_20011 0 
