**ABCDEFGHIJKLMNOPQRSTUVWXYZabcdefghijklmnopqrstuvwxyz**************************
**PARASOLID !"#$%&'()*+,-./:;<=>?@[\]^_`{|}~0123456789**************************
**PART1;
MC=AMD64;
MC_MODEL=Intel64 Family 6 Model 158 Stepping 10, GenuineIntel;
MC_ID=unknown;
OS=Windows_NT;
OS_RELEASE=unknown;
FRU=Parasolid Version 33.1, build 247,  8- 6-2021;
APPL=SOLIDWORKS 2022-2021255;
SITE=;
USER=unknown;
FORMAT=text;
GUISE=transmit;
KEY=FILE×Óµ¯´ò°å.x_t;
DATE=Tue Jul 19 11:14:37 2022;
**PART2;
SCH=SCH_3301247_33103;
USFLD_SIZE=0;
**PART3;
**END_OF_HEADER*****************************************************************
T51 : TRANSMIT FILE created by modeller version 330124723 SCH_3301247_33103_1300
6230 0 10 21 CCCCI7 lattice222 0 CCCI4 mesh1006 0 I8 polyline1008 0 CCCCCCCCCCA1
6 mesh_offset_data206 0 Z1 5 2 3 0 0 0 0 0 0 0 0 1e3 1e-8 0 0 0 1 0 1 4 0 81 255
 2 2 5 5 1 0 0 0 0 0 0 70 11 CI9 list_type0 0 1 uI10 notransmit0 0 1 lCCCDCCDI12
 finger_index0 0 1 dI12 finger_block1012 0 CZ3 0 4 T1 0 0 1 20 1 6 6 11 255 4 3
 0 1 7 8 1 9 0 0 0 12 35 CCCI7 lattice222 0 CCCI4 mesh1006 0 I8 polyline1008 0 C
CCCCCCDI5 owner1040 0 CCCCCCI13 boundary_mesh1006 0 I17 boundary_polyline1008 0
 CCCA16 index_map_offset0 0 1 dA9 index_map82 0 A17 node_id_index_map82 0 A20 sc
hema_embedding_map82 0 A5 child12 0 A14 lowest_node_id0 0 1 dA16 mesh_offset_dat
a206 0 Z7 114 10 11 0 0 0 0 0 0 0 1e3 1e-8 4 12 0 1 0 1 1 13 14 15 0 0 0 16 17 0
 0 0 0 0 0 0 0 100 10 CCCCCCCCCA9 precision229 0 Z8 4 4 0 0 1 0 0 0 1 0 0 0 1 0
 0 0 1 0 ?0 11 9 1 0 1 12 18 1 0 4 0 0 12 12 120 19 20 0 0 0 0 0 0 0 1e3 1e-8 9
 21 7 1 0 1 1 22 23 24 25 0 0 26 27 28 0 0 0 0 0 0 0 100 18 2 9 0 0 1 0 0 0 1 0
 0 0 1 0 0 0 1 0 ?0 81 1 19 120 29 12 30 0 0 0 0 70 20 0 4 T12 0 0 5 20 1 31 31
 13 255 22 34 0 12 0 32 0 0 33 0 50 255 23 63 0 32 34 0 0 +-178217688980021e-33
 63523089330759e-49 0 -1 356435377960042e-31 0 -356435377960042e-31 -1 0 31 255
 24 65 0 27 35 0 0 +0 0 0 1 -356435377960042e-31 0 356435377960042e-31 1 0 .01 2
9 255 25 23 0 28 0 0 .05 -178217688980021e-32 0 19 8 CCCCCCCA5 owner12 0 Z26 38
 0 12 33 0 36 V0 16 255 27 47 0 ?37 0 38 24 0 0 12 18 255 28 21 0 39 0 0 25 ?12
 17 255 39 0 40 39 39 28 0 0 0 0 ?15 255 40 44 0 39 41 0 14 255 41 45 42 ?0 43 4
4 22 45 +0 0 0 43 36 81 1 42 117 46 41 47 0 0 48 49 14 43 50 48 ?41 32 50 22 34
 +0 0 41 32 36 15 44 80 0 51 41 40 52 255 45 61 0 41 0 34 0 +.05 -17821768898002
1e-32 0 -1 356435377960042e-31 0 0 .447213595499958 .894427190999916 -3564353779
60042e-31 -1 0 13 36 37 0 0 0 0 0 0 26 32 14 32 55 52 ?43 0 53 22 23 +0 0 43 0 3
6 81 1 52 119 46 32 54 0 48 0 55 15 53 54 0 56 32 0 17 56 0 53 56 56 0 37 27 0 0
 -17 37 0 50 37 37 0 56 27 0 0 +15 50 79 0 37 43 57 15 57 49 0 58 43 0 17 58 0 5
7 58 58 0 51 38 0 0 -17 51 0 44 51 51 0 58 38 0 0 +16 38 42 0 ?51 27 0 35 0 0 12
 31 35 64 0 38 0 24 0 +.03 -1069306133880126e-33 0 1 -356435377960042e-31 0 3564
35377960042e-31 1 0 .01 80 255 1 46 59 60 9000 1 1 1 1 1 1 1 1 0 FFFFTFTFFFFFFF1
 81 1 54 106 61 32 0 52 0 62 63 81 1 48 118 46 43 62 0 42 52 64 82 255 1 55 -342
949785 81 1 62 107 61 43 0 48 54 47 65 82 1 64 -343539609 80 1 61 0 66 8001 0 0
 0 0 3 5 0 0 0 FFFFTFTFFFFFFF2 81 1 47 108 61 41 0 42 62 0 67 83 255 3 65 .79215
6862745098 .819607843137255 .933333333333333 83 3 67 .792156862745098 .819607843
137255 .933333333333333 79 255 15 66 SDL/TYSA_COLOUR83 3 63 .792156862745098 .81
9607843137255 .933333333333333 79 14 60 SWEntUnchanged51 255 34 62 0 43 45 23 0
 +.05 -178217688980021e-32 0 1 -356435377960042e-31 0 .01 356435377960042e-31 1
 0 82 1 49 -344129433 19 33 33 0 12 0 26 22 S0 74 4 CI16 index_map_offset0 0 1 d
CCZ20 31 5 0 0 52 68 30 47 19 0 0 0 0 0 0 0 0 0 0 0 0 0 0 0 81 2 68 95 69 12 0 3
0 0 0 70 0 81 3 30 105 71 12 68 19 0 0 72 73 74 80 3 71 75 76 9000 0 1 0 0 1 1 1
 1 0 FFTFFFFFFFFFFF1 1 1 82 1 72 60235 82 1 73 104 82 2 74 60294 60285 79 13 76
 TempAxisFaces80 2 69 77 78 8004 0 0 0 0 3 5 0 0 0 FFTFFFFFFFFFFF2 3 83 1 70 1 7
9 16 78 SDL/TYSA_DENSITY80 1 29 79 80 8017 0 0 0 0 0 0 0 0 0 TTTTTTTTTTTTTF3 79
 13 80 SDL/TYSA_NAME81 1 10 114 29 7 81 0 0 0 0 70 11 0 4 T7 0 0 5 20 1 82 82 13
 13 34 0 7 0 83 0 0 84 0 50 14 63 0 83 85 0 0 +.0792844949744604 190569267992277
e-49 0 -1 356435377960042e-31 0 -356435377960042e-31 -1 0 31 15 65 0 17 86 0 0 +
.0792844949744604 -2825979893259285e-33 0 1 -356435377960042e-31 0 3564353779600
42e-31 1 0 .03 19 16 38 0 7 84 0 87 V0 16 17 47 0 ?88 0 89 15 0 0 7 17 88 0 90 8
8 88 0 91 17 0 0 +16 89 42 0 ?92 17 0 86 0 0 7 17 92 0 93 92 92 0 94 89 0 0 +31
 86 64 0 89 0 15 0 +.0832844949744604 -29685540444433e-31 0 1 -356435377960042e-
31 0 356435377960042e-31 1 0 .03 15 93 80 0 92 95 0 17 94 0 96 94 94 0 92 89 0 0
 -15 96 49 0 94 97 0 14 97 50 98 ?95 83 90 13 85 +0 0 95 83 87 81 1 98 111 46 97
 99 0 0 100 101 14 95 45 100 ?0 97 93 13 102 +0 0 0 97 87 14 83 55 103 ?97 0 104
 13 14 +0 0 97 0 87 15 90 79 0 88 97 96 51 85 62 0 97 102 14 0 +.05 -17821768898
0021e-32 0 1 -356435377960042e-31 0 .03 356435377960042e-31 1 0 13 87 37 0 0 0 0
 0 0 16 83 50 102 61 0 95 0 85 0 +.0832844949744604 .03 0 1 -356435377960042e-31
 0 356435377960042e-31 1 0 81 1 103 113 46 83 105 0 100 0 106 15 104 54 0 91 83
 0 17 91 0 104 91 91 0 88 17 0 0 -81 1 105 100 61 83 0 103 0 99 107 81 1 100 112
 46 95 108 0 98 103 109 82 1 106 -336068505 81 1 108 102 61 95 0 100 99 0 110 82
 1 109 -337248153 81 1 99 101 61 97 0 98 105 108 111 83 3 110 .792156862745098 .
819607843137255 .933333333333333 83 3 111 .792156862745098 .819607843137255 .933
333333333333 83 3 107 .792156862745098 .819607843137255 .933333333333333 82 1 10
1 -336658329 19 84 33 0 7 0 16 13 S0 74 20 82 5 0 0 103 112 81 108 10 0 0 0 0 0
 0 0 0 0 0 0 0 0 0 0 81 2 112 95 69 7 0 81 0 0 113 0 81 3 81 99 71 7 112 10 0 0
 114 115 116 82 1 114 60340 82 1 115 105 82 1 116 60399 83 1 113 1 74 20 6 1 0 0
 2 0 0 0 0 0 0 0 0 0 0 0 0 0 0 0 0 0 0 0 80 2 5 117 118 9000 0 0 0 0 3 5 0 0 0 T
FFFFFFFFFFFFF9 1 79 18 118 MULTI_BODY_ID_20011 0 
